<?xml version="1.0" encoding="utf-8"?>
<!-- Generator: Adobe Illustrator 16.0.0, SVG Export Plug-In . SVG Version: 6.00 Build 0)  -->
<!DOCTYPE svg PUBLIC "-//W3C//DTD SVG 1.1//EN" "http://www.w3.org/Graphics/SVG/1.1/DTD/svg11.dtd">
<svg version="1.1" id="Layer_1" xmlns="http://www.w3.org/2000/svg" xmlns:xlink="http://www.w3.org/1999/xlink" x="0px" y="0px"
	 width="35px" height="35px" viewBox="0 0 35 35" enable-background="new 0 0 35 35" xml:space="preserve">
<g>
	<defs>
		<rect id="SVGID_1_" width="35" height="35"/>
	</defs>
	<clipPath id="SVGID_2_">
		<use xlink:href="#SVGID_1_"  overflow="visible"/>
	</clipPath>
	<path clip-path="url(#SVGID_2_)" fill="#FF69B3" d="M17.5,34.514c9.397,0,17.014-7.617,17.014-17.014
		c0-9.396-7.616-17.014-17.014-17.014C8.103,0.486,0.486,8.104,0.486,17.5C0.486,26.896,8.103,34.514,17.5,34.514"/>
	<circle clip-path="url(#SVGID_2_)" fill="none" stroke="#1D1D1B" stroke-width="0.972" cx="17.5" cy="17.5" r="17.014"/>
	<path clip-path="url(#SVGID_2_)" fill="#1D1D1B" d="M13.47,16.042c0.94,0,1.701-2.068,1.701-4.618c0-2.551-0.761-4.618-1.701-4.618
		c-0.94,0-1.701,2.067-1.701,4.618C11.769,13.974,12.529,16.042,13.47,16.042"/>
	<path clip-path="url(#SVGID_2_)" fill="#1D1D1B" d="M21.53,16.042c0.94,0,1.701-2.068,1.701-4.618c0-2.551-0.761-4.618-1.701-4.618
		c-0.939,0-1.701,2.067-1.701,4.618C19.829,13.974,20.591,16.042,21.53,16.042"/>
	<path clip-path="url(#SVGID_2_)" fill="none" stroke="#1D1D1B" stroke-width="0.972" d="M6.925,18.477
		c0,0,1.058,9.718,10.575,9.718"/>
</g>
<g>
	<defs>
		<rect id="SVGID_3_" width="35" height="35"/>
	</defs>
	<clipPath id="SVGID_4_">
		<use xlink:href="#SVGID_3_"  overflow="visible"/>
	</clipPath>
	<path clip-path="url(#SVGID_4_)" fill="none" stroke="#1D1D1B" stroke-width="0.972" d="M28.075,18.477
		c0,0-1.058,9.718-10.575,9.718"/>
</g>
</svg>
